<svg width="224" height="42" viewBox="0 0 224 42" fill="none" xmlns="http://www.w3.org/2000/svg">
<g clip-path="url(#clip0_3_25)">
<path d="M53.9918 1.78452H59.5844V32.2892H68.7866V37.3734H53.9918V1.78452Z" fill="#726BEA"/>
<path d="M79.3537 37.8818C76.6083 37.8818 74.5069 37.1022 73.0493 35.5431C71.5919 33.9839 70.8632 31.7808 70.8632 28.9337V10.2242C70.8632 7.37704 71.5919 5.17392 73.0493 3.61479C74.5069 2.05566 76.6083 1.27609 79.3537 1.27609C82.0991 1.27609 84.2005 2.05566 85.658 3.61479C87.1154 5.17392 87.8441 7.37704 87.8441 10.2242V28.9337C87.8441 31.7808 87.1154 33.9839 85.658 35.5431C84.2005 37.1022 82.0991 37.8818 79.3537 37.8818ZM79.3537 32.7977C81.2857 32.7977 82.2517 31.6282 82.2517 29.2895V9.86826C82.2517 7.52956 81.2857 6.36021 79.3537 6.36021C77.4217 6.36021 76.4557 7.52956 76.4557 9.86826V29.2895C76.4557 31.6282 77.4217 32.7977 79.3537 32.7977Z" fill="#726BEA"/>
<path d="M99.5575 37.8818C96.846 37.8818 94.7785 37.1192 93.3548 35.5939C91.9313 34.0348 91.2195 31.8147 91.2195 28.9337V10.2242C91.2195 7.34315 91.9313 5.14002 93.3548 3.61479C94.7785 2.05566 96.846 1.27609 99.5575 1.27609C102.269 1.27609 104.337 2.05566 105.76 3.61479C107.184 5.14002 107.895 7.34315 107.895 10.2242V13.2746H102.608V9.86826C102.608 7.52956 101.642 6.36021 99.71 6.36021C97.7781 6.36021 96.8121 7.52956 96.8121 9.86826V29.3405C96.8121 31.6453 97.7781 32.7977 99.71 32.7977C101.642 32.7977 102.608 31.6453 102.608 29.3405V22.3752H99.8117V17.2911H107.895V28.9337C107.895 31.8147 107.184 34.0348 105.76 35.5939C104.337 37.1192 102.269 37.8818 99.5575 37.8818Z" fill="#726BEA"/>
<path d="M119.57 37.8818C116.824 37.8818 114.723 37.1022 113.266 35.5431C111.808 33.9839 111.079 31.7808 111.079 28.9337V10.2242C111.079 7.37704 111.808 5.17392 113.266 3.61479C114.723 2.05566 116.824 1.27609 119.57 1.27609C122.315 1.27609 124.417 2.05566 125.874 3.61479C127.332 5.17392 128.06 7.37704 128.06 10.2242V28.9337C128.06 31.7808 127.332 33.9839 125.874 35.5431C124.417 37.1022 122.315 37.8818 119.57 37.8818ZM119.57 32.7977C121.502 32.7977 122.468 31.6282 122.468 29.2895V9.86826C122.468 7.52956 121.502 6.36021 119.57 6.36021C117.638 6.36021 116.672 7.52956 116.672 9.86826V29.2895C116.672 31.6282 117.638 32.7977 119.57 32.7977Z" fill="#726BEA"/>
<path d="M131.853 1.78452H137.446V37.3734H131.853V1.78452Z" fill="#8A4FFF"/>
<path d="M141.634 1.78452H149.87C152.649 1.78452 154.734 2.53018 156.124 4.02153C157.514 5.51287 158.208 7.69904 158.208 10.58V14.0881C158.208 16.9691 157.514 19.1552 156.124 20.6466C154.734 22.1379 152.649 22.8836 149.87 22.8836H147.227V37.3734H141.634V1.78452ZM149.87 17.7995C150.786 17.7995 151.463 17.5452 151.904 17.0369C152.379 16.5284 152.615 15.6642 152.615 14.4439V10.2242C152.615 9.00397 152.379 8.13966 151.904 7.63125C151.463 7.12284 150.786 6.86864 149.87 6.86864H147.227V17.7995H149.87Z" fill="#8A4FFF"/>
<path d="M168.714 37.8818C166.004 37.8818 163.953 37.1192 162.562 35.5939C161.174 34.0348 160.478 31.8147 160.478 28.9337V26.9H165.766V29.3405C165.766 31.6453 166.732 32.7977 168.664 32.7977C169.613 32.7977 170.324 32.5265 170.799 31.9843C171.307 31.408 171.562 30.4928 171.562 29.2387C171.562 27.7474 171.223 26.4425 170.545 25.324C169.868 24.1716 168.613 22.7989 166.782 21.2058C164.478 19.1722 162.868 17.3419 161.952 15.715C161.038 14.0542 160.58 12.19 160.58 10.1225C160.58 7.30925 161.291 5.14002 162.715 3.61479C164.139 2.05566 166.207 1.27609 168.918 1.27609C171.595 1.27609 173.613 2.05566 174.968 3.61479C176.358 5.14002 177.052 7.34315 177.052 10.2242V11.6985H171.765V9.86826C171.765 8.64807 171.528 7.76682 171.053 7.22451C170.579 6.64831 169.884 6.36021 168.969 6.36021C167.104 6.36021 166.173 7.49566 166.173 9.76658C166.173 11.0545 166.512 12.2578 167.189 13.3763C167.901 14.4948 169.172 15.8505 171.003 17.4436C173.341 19.4772 174.951 21.3245 175.833 22.9853C176.714 24.6462 177.155 26.595 177.155 28.832C177.155 31.747 176.425 33.9839 174.968 35.5431C173.544 37.1022 171.459 37.8818 168.714 37.8818Z" fill="#8A4FFF"/>
<path d="M188.496 37.8818C185.784 37.8818 183.716 37.1192 182.293 35.5939C180.869 34.0348 180.158 31.8147 180.158 28.9337V1.78452H185.751V29.3405C185.751 30.5606 185.987 31.4419 186.462 31.9843C186.97 32.5265 187.683 32.7977 188.597 32.7977C189.512 32.7977 190.207 32.5265 190.681 31.9843C191.19 31.4419 191.444 30.5606 191.444 29.3405V1.78452H196.833V28.9337C196.833 31.8147 196.122 34.0348 194.698 35.5939C193.274 37.1192 191.206 37.8818 188.496 37.8818Z" fill="#8A4FFF"/>
<path d="M200.816 1.78452H208.799L212.358 27.2559H212.458L216.019 1.78452H224V37.3734H218.712V10.4275H218.611L214.543 37.3734H209.866L205.799 10.4275H205.698V37.3734H200.816V1.78452Z" fill="#8A4FFF"/>
<path d="M0 37.3734C6.88027 37.3734 12.4578 31.7958 12.4578 24.9157C12.4578 18.0354 6.88027 12.4578 0 12.4578V21.1782C2.06406 21.1782 3.73731 22.8515 3.73731 24.9157C3.73731 26.9797 2.06406 28.653 0 28.653V37.3734Z" fill="#726BEA"/>
<path d="M41.526 16.6104C39.3971 15.9361 37.1301 15.5722 34.778 15.5722C22.4508 15.5722 12.4578 25.5654 12.4578 37.8924C12.4578 39.1297 12.5585 40.3435 12.7521 41.526H26.6203C26.1253 40.416 25.85 39.1864 25.85 37.8924C25.85 32.9616 29.8472 28.9643 34.778 28.9643C37.473 28.9643 39.8889 30.1584 41.526 32.0463V16.6104Z" fill="#A5B4FC"/>
<path d="M2.19032 0C3.22315 9.34324 11.1444 16.6104 20.763 16.6104C30.3814 16.6104 38.3027 9.34324 39.3355 0H25.9718C25.1468 2.06822 23.1255 3.52969 20.763 3.52969C18.4003 3.52969 16.3792 2.06822 15.554 0H2.19032Z" fill="#8A4FFF"/>
</g>
<defs>
<clipPath id="clip0_3_25">
<rect width="224" height="42" fill="white"/>
</clipPath>
</defs>
</svg>
