<svg width="224" height="42" fill="none" xmlns="http://www.w3.org/2000/svg"><g clip-path="url(#clip0_3_25)"><path d="M53.992 1.785h5.592v30.504h9.203v5.084H53.992V1.785zm25.362 36.097c-2.746 0-4.847-.78-6.305-2.339-1.457-1.56-2.186-3.762-2.186-6.61V10.225c0-2.847.729-5.05 2.186-6.61 1.458-1.558 3.56-2.338 6.305-2.338 2.745 0 4.847.78 6.304 2.339 1.457 1.559 2.186 3.762 2.186 6.61v18.709c0 2.847-.729 5.05-2.186 6.61-1.457 1.558-3.559 2.338-6.304 2.338zm0-5.084c1.932 0 2.898-1.17 2.898-3.509V9.87c0-2.34-.966-3.509-2.898-3.509-1.932 0-2.898 1.17-2.898 3.508V29.29c0 2.338.966 3.508 2.898 3.508zm20.204 5.084c-2.712 0-4.78-.763-6.203-2.288-1.424-1.56-2.136-3.78-2.136-6.66v-18.71c0-2.88.712-5.084 2.136-6.61 1.423-1.558 3.491-2.338 6.203-2.338 2.711 0 4.779.78 6.202 2.339 1.424 1.525 2.135 3.728 2.135 6.61v3.05h-5.287V9.868c0-2.338-.966-3.508-2.898-3.508-1.932 0-2.898 1.17-2.898 3.508V29.34c0 2.305.966 3.458 2.898 3.458 1.932 0 2.898-1.153 2.898-3.458v-6.965h-2.796v-5.084h8.083v11.643c0 2.88-.711 5.1-2.135 6.66-1.423 1.525-3.491 2.288-6.203 2.288zm20.012 0c-2.746 0-4.847-.78-6.304-2.339-1.458-1.56-2.187-3.762-2.187-6.61V10.225c0-2.847.729-5.05 2.187-6.61 1.457-1.558 3.558-2.338 6.304-2.338 2.745 0 4.847.78 6.304 2.339 1.458 1.559 2.186 3.762 2.186 6.61v18.709c0 2.847-.728 5.05-2.186 6.61-1.457 1.558-3.559 2.338-6.304 2.338zm0-5.084c1.932 0 2.898-1.17 2.898-3.509V9.87c0-2.34-.966-3.509-2.898-3.509-1.932 0-2.898 1.17-2.898 3.508V29.29c0 2.338.966 3.508 2.898 3.508z" fill="#726BEA"/><path d="M131.853 1.785h5.593v35.588h-5.593V1.785zm9.781 0h8.236c2.779 0 4.864.745 6.254 2.237 1.39 1.49 2.084 3.677 2.084 6.558v3.508c0 2.881-.694 5.067-2.084 6.559-1.39 1.49-3.475 2.237-6.254 2.237h-2.643v14.49h-5.593V1.783zm8.236 16.014c.916 0 1.593-.254 2.034-.762.475-.509.711-1.373.711-2.593v-4.22c0-1.22-.236-2.084-.711-2.593-.441-.508-1.118-.762-2.034-.762h-2.643v10.93h2.643zm18.844 20.083c-2.71 0-4.761-.763-6.152-2.288-1.388-1.56-2.084-3.78-2.084-6.66V26.9h5.288v2.44c0 2.305.966 3.458 2.898 3.458.949 0 1.66-.272 2.135-.814.508-.576.763-1.491.763-2.745 0-1.492-.339-2.797-1.017-3.915-.677-1.152-1.932-2.525-3.763-4.118-2.304-2.034-3.914-3.864-4.83-5.491-.914-1.66-1.372-3.525-1.372-5.592 0-2.814.711-4.983 2.135-6.508 1.424-1.56 3.492-2.339 6.203-2.339 2.677 0 4.695.78 6.05 2.339 1.39 1.525 2.084 3.728 2.084 6.61v1.473h-5.287v-1.83c0-1.22-.237-2.101-.712-2.643-.474-.577-1.169-.865-2.084-.865-1.865 0-2.796 1.136-2.796 3.407a6.85 6.85 0 001.016 3.61c.712 1.118 1.983 2.473 3.814 4.067 2.338 2.033 3.948 3.88 4.83 5.541.881 1.661 1.322 3.61 1.322 5.847 0 2.915-.73 5.152-2.187 6.711-1.424 1.56-3.509 2.339-6.254 2.339zm19.782 0c-2.712 0-4.78-.763-6.203-2.288-1.424-1.56-2.135-3.78-2.135-6.66V1.784h5.593V29.34c0 1.22.236 2.102.711 2.644.508.542 1.221.814 2.135.814.915 0 1.61-.272 2.084-.814.509-.542.763-1.423.763-2.644V1.785h5.389v27.149c0 2.88-.711 5.1-2.135 6.66-1.424 1.525-3.492 2.288-6.202 2.288zm12.32-36.097h7.983l3.559 25.47h.1l3.561-25.47H224v35.588h-5.288V10.428h-.101l-4.068 26.945h-4.677l-4.067-26.945h-.101v26.945h-4.882V1.785z" fill="#8A4FFF"/><path d="M0 37.373c6.88 0 12.458-5.577 12.458-12.457 0-6.88-5.578-12.458-12.458-12.458v8.72a3.737 3.737 0 010 7.475v8.72z" fill="#726BEA"/><path d="M41.526 16.61a22.312 22.312 0 00-6.748-1.038c-12.327 0-22.32 9.993-22.32 22.32 0 1.238.1 2.451.294 3.634H26.62a8.928 8.928 0 0114.906-9.48V16.61z" fill="#A5B4FC"/><path d="M2.19 0c1.033 9.343 8.954 16.61 18.573 16.61 9.618 0 17.54-7.267 18.573-16.61H25.972a5.608 5.608 0 01-10.418 0H2.19z" fill="#8A4FFF"/></g><defs><clipPath id="clip0_3_25"><path fill="#fff" d="M0 0h224v42H0z"/></clipPath></defs></svg>